<svg xmlns="http://www.w3.org/2000/svg" xml:space="preserve" width="588" height="588"><g transform="translate(-115.91 -23.83)"><path fill="#fff" stroke="#2e3d25" stroke-width="30" d="M682.26 371.34c-5.95-22.15-15.97-41.48-30.03-58-4.23-83.34-48.87-156-114.7-198.82 0-.37.03-.72.03-1.09 0-10.02-4-19.25-12-27.67-30.4-31.28-67.4-46.93-111-46.93-43.2 0-79.5 14.72-108.9 44.16a160.1 160.1 0 0 0-13.1 14.82c-85.7 40.38-145 127.52-145 228.52 0 5.42.19 10.8.52 16.14-4.94 4.79-8.57 11.08-10.87 18.87-11.89 41.98-6.94 81.84 14.86 119.6 21.6 37.41 52.5 61.48 92.68 72.23 18.35 4.9 36.41 6.42 54.19 4.58a251.62 251.62 0 0 0 101.12 21.08c46.2 0 89.49-12.42 126.74-34.08a38.6 38.6 0 0 0 13.14 12.2c8.68 5.01 18.67 6.16 29.96 3.44 42.3-10.69 74.35-34.9 96.15-72.66 21.6-37.41 27-76.2 16.2-116.39z"/><circle cx="400.94" cy="326.79" r="252.5" fill="#559338" stroke="#88ba68" stroke-width="5"/><radialGradient id="a" cx="405.44" cy="337.29" r="226.5" gradientUnits="userSpaceOnUse"><stop offset="0" stop-color="#d8edca"/><stop offset="1" stop-color="#9ebf88"/></radialGradient><circle cx="405.44" cy="337.29" r="226.5" fill="url(#a)" stroke="#b0d19b" stroke-width="5"/><radialGradient id="b" cx="410.17" cy="300.79" r="270.06" gradientUnits="userSpaceOnUse"><stop offset="0" stop-color="#688c51"/><stop offset=".47" stop-color="#587b42"/><stop offset="1" stop-color="#42632d"/></radialGradient><path fill="url(#b)" stroke="#5b7749" stroke-width="5" d="M683.14 371.8c-10.8-40.18-34.93-71.08-72.39-92.71-37.46-21.63-76.37-27.13-116.74-16.48-4.54 1.2-8.94 2.56-13.24 4.1a48.26 48.26 0 0 0-11.93-1.42h-53.4c-20 0-37-7.11-51-21.36-14-14.23-21-31.38-21-51.44 0-20.05 7-37.1 20.98-51.13 13.99-14.04 30.98-21.07 50.97-21.07 5.2 0 10.39.55 15.59 1.64l-43.06 42.75c-8.86 8.73-13.28 18.05-13.28 27.96 0 11.11 4.1 20.83 12.3 29.16 8.2 8.33 17.9 12.5 29.1 12.5 10 0 19.4-4.04 28.2-12.11l76.8-75.2c11.6-8.82 17.4-19.86 17.4-33.1 0-10.02-4-19.25-12-27.67-30.4-31.28-67.4-46.93-111-46.93-43.2 0-79.5 14.72-108.9 44.16-29.4 29.43-44.1 65.79-44.1 109.04 0 43.26 14.7 79.7 44.1 109.35 3.54 3.57 7.18 6.91 10.92 10.05a48.86 48.86 0 0 0 4.51 10.26l26.7 46.24c10 17.32 12.34 35.6 7 54.85-5.33 19.24-16.68 33.88-34.05 43.91-17.36 10.02-35.62 12.49-54.78 7.4-19.15-5.1-33.72-16.3-43.72-33.62a76.04 76.04 0 0 1-6.38-14.31l58.55 15.92c12 3.3 22.28 2.47 30.86-2.49 9.62-5.56 16-13.96 19.1-25.23 3.11-11.27 1.87-21.75-3.73-31.45-5-8.66-13.19-14.78-24.58-18.37l-103.53-28.9c-13.43-5.64-25.89-5.15-37.36 1.47-8.68 5.02-14.67 13.1-17.96 24.23-11.89 41.98-6.94 81.84 14.86 119.6 21.6 37.41 52.5 61.48 92.69 72.23 40.2 10.74 79.02 5.3 116.49-16.33 37.46-21.63 61.67-52.58 72.64-92.87 1.28-4.69 2.32-9.36 3.16-14.01a48.9 48.9 0 0 0 6.58-8.99l26.7-46.24c10-17.32 24.66-28.48 44-33.49 19.32-5 37.67-2.5 55.05 7.54 17.36 10.02 28.63 24.6 33.79 43.74 5.16 19.13 2.75 37.36-7.25 54.67a76.12 76.12 0 0 1-9.2 12.68l-15.5-58.67c-3.13-12.03-9-20.52-17.58-25.48-9.62-5.55-20.08-6.86-31.4-3.93-11.31 2.95-19.76 9.26-25.37 18.96-5 8.66-6.2 18.82-3.62 30.48l26.73 104.1c1.84 14.46 8.5 25 19.96 31.62 8.69 5.01 18.68 6.16 29.97 3.44 42.3-10.69 74.34-34.9 96.14-72.66 21.6-37.41 27-76.2 16.2-116.39z"/><linearGradient id="c" x1="265.5" x2="380.5" y1="95.27" y2="330.26" gradientUnits="userSpaceOnUse"><stop offset="0" stop-color="#fff"/><stop offset="1" stop-color="#fff"/></linearGradient><path fill="url(#c)" d="M137.2 361.34c2.31-7.8 5.94-14.08 10.88-18.87-.33-5.34-.52-10.72-.52-16.14 0-101 59.3-188.13 145-228.52A160.38 160.38 0 0 1 305.65 83c29.4-29.44 65.7-44.16 108.9-44.16 43.59 0 80.59 15.65 111 46.93 8 8.42 12 17.65 12 27.67 0 .37-.02.72-.03 1.09a253.63 253.63 0 0 1 90.27 102.66c4.85-1.43 9.7-2.85 14.58-4.25a268.56 268.56 0 0 0-90.33-106.74 51.01 51.01 0 0 0-3.73-13.16 60.73 60.73 0 0 0-11.89-17.6l-.1-.1-.02-.02c-16.44-16.93-35.01-29.92-55.47-38.56-20.45-8.66-42.7-12.93-66.28-12.92-23.3 0-45.2 4-65.27 12.14-20.08 8.13-38.26 20.4-54.25 36.42-4.3 4.31-8.33 8.77-12.08 13.39-89.04 43.4-150.4 134.82-150.4 240.55 0 3.63.08 7.23.22 10.8a60.18 60.18 0 0 0-9.96 19.96l-.02.09-.02.07A174.7 174.7 0 0 0 115.9 405c-.02 28.9 7.88 57.03 23.17 83.44.4.71.82 1.4 1.24 2.1 3.56-3.82 7.14-7.61 10.76-11.35-20.95-37.23-25.57-76.51-13.87-117.84z" opacity=".25"/><linearGradient id="d" x1="265.51" x2="380.51" y1="95.26" y2="330.26" gradientUnits="userSpaceOnUse"><stop offset="0" stop-color="#fff"/><stop offset="1" stop-color="#fff"/></linearGradient><path fill="url(#d)" d="M537.53 114.52c0-.37.03-.72.03-1.09 0-10.02-4-19.25-12-27.67-30.41-31.28-67.41-46.93-111-46.93-43.2 0-79.5 14.72-108.9 44.16a160.1 160.1 0 0 0-13.1 14.82c-85.7 40.38-145 127.52-145 228.52 0 5.42.19 10.8.52 16.14-4.94 4.79-8.57 11.08-10.87 18.87-11.7 41.33-7.08 80.6 13.87 117.84a766.7 766.7 0 0 1 11.02-11.13c122.78-121.7 278.53-194.23 451.11-246.51 4.85-1.47 9.71-2.92 14.59-4.36a253.62 253.62 0 0 0-90.27-102.66z" opacity=".25"/></g></svg>