<?xml version="1.0" encoding="UTF-8" standalone="no"?>
<svg
   xmlns:dc="http://purl.org/dc/elements/1.1/"
   xmlns:cc="http://creativecommons.org/ns#"
   xmlns:rdf="http://www.w3.org/1999/02/22-rdf-syntax-ns#"
   xmlns:svg="http://www.w3.org/2000/svg"
   xmlns="http://www.w3.org/2000/svg"
   xml:space="preserve"
   enable-background="new 0 0 792 612"
   viewBox="0 0 586.63794 570.00001"
   height="608"
   width="625.74713"
   y="0px"
   x="0px"
   id="Logo"
   version="1.1"><metadata
     id="metadata46"><rdf:RDF><cc:Work
         rdf:about=""><dc:format>image/svg+xml</dc:format><dc:type
           rdf:resource="http://purl.org/dc/dcmitype/StillImage" /><dc:title></dc:title></cc:Work></rdf:RDF></metadata><defs
     id="defs44" /><g
     transform="translate(-115.91394,-23.831986)"
     id="g41"><path
       style="fill:#ffffff;stroke:#2e3d25;stroke-width:30"
       id="path5"
       d="m 682.256,371.344 c -5.95,-22.158 -15.966,-41.487 -30.027,-58.002 -4.224,-83.34 -48.864,-156.008 -114.702,-198.825 0.009,-0.362 0.03,-0.718 0.03,-1.083 0,-10.023 -4,-19.25 -12,-27.672 -30.406,-31.281 -67.406,-46.93 -111,-46.93 -43.203,0 -79.501,14.719 -108.899,44.156 -4.755,4.76 -9.119,9.704 -13.105,14.826 -85.685,40.38 -144.996,127.516 -144.996,228.518 0,5.421 0.191,10.797 0.527,16.133 -4.942,4.795 -8.571,11.083 -10.875,18.877 -11.887,41.973 -6.939,81.84 14.857,119.594 21.602,37.414 52.497,61.488 92.689,72.23 18.347,4.905 36.408,6.426 54.185,4.585 30.963,13.548 65.158,21.081 101.117,21.081 46.198,0 89.493,-12.417 126.745,-34.081 3.282,4.959 7.652,9.033 13.138,12.2 8.682,5.012 18.672,6.16 29.965,3.443 42.293,-10.691 74.346,-34.91 96.143,-72.664 21.6,-37.414 27.001,-76.207 16.208,-116.386 z" /><circle
       style="fill:#559338;stroke:#88ba68;stroke-width:5"
       id="circle7"
       r="252.5"
       cy="326.79099"
       cx="400.939" /><radialGradient
       gradientUnits="userSpaceOnUse"
       r="226.5"
       cy="337.29099"
       cx="405.43951"
       id="SVGID_1_"><stop
         id="stop9"
         style="stop-color:#D8EDCA"
         offset="0" /><stop
         id="stop11"
         style="stop-color:#9EBF88"
         offset="1" /></radialGradient><circle
       style="fill:url(#SVGID_1_);stroke:#b0d19b;stroke-width:5"
       id="circle14"
       r="226.5"
       cy="337.29099"
       cx="405.439" /><radialGradient
       gradientUnits="userSpaceOnUse"
       r="270.06439"
       cy="300.78909"
       cx="410.16501"
       id="SVGID_2_"><stop
         id="stop16"
         style="stop-color:#688C51"
         offset="0" /><stop
         id="stop18"
         style="stop-color:#587B42"
         offset="0.4749" /><stop
         id="stop20"
         style="stop-color:#42632D"
         offset="1" /></radialGradient><path
       style="fill:url(#SVGID_2_);stroke:#5b7749;stroke-width:5"
       id="path23"
       d="m 683.139,371.803 c -10.791,-40.186 -34.926,-71.087 -72.387,-92.716 -37.463,-21.629 -76.373,-27.125 -116.746,-16.479 -4.532,1.195 -8.94,2.567 -13.236,4.1 -3.688,-0.938 -7.661,-1.416 -11.932,-1.416 H 415.44 c -20,0 -37,-7.117 -51,-21.359 -14,-14.234 -21,-31.383 -21,-51.445 0,-20.047 6.992,-37.094 20.984,-51.133 13.984,-14.039 30.977,-21.063 50.969,-21.063 5.188,0 10.383,0.547 15.586,1.633 l -43.063,42.75 c -8.852,8.734 -13.273,18.055 -13.273,27.969 0,11.109 4.094,20.828 12.297,29.156 8.203,8.328 17.899,12.492 29.102,12.492 10,0 19.398,-4.031 28.203,-12.102 l 76.797,-75.203 c 11.594,-8.82 17.398,-19.852 17.398,-33.094 0,-10.023 -4,-19.25 -12,-27.672 -30.406,-31.281 -67.406,-46.93 -111,-46.93 -43.204,0 -79.5,14.719 -108.899,44.156 -29.406,29.438 -44.102,65.789 -44.102,109.047 0,43.258 14.695,79.703 44.102,109.344 3.539,3.568 7.181,6.917 10.92,10.055 1.031,3.403 2.527,6.821 4.51,10.256 l 26.699,46.245 c 10,17.32 12.336,35.602 7.002,54.846 -5.327,19.242 -16.678,33.879 -34.053,43.91 -17.361,10.023 -35.621,12.49 -54.775,7.393 -19.15,-5.092 -33.729,-16.295 -43.725,-33.609 -2.594,-4.492 -4.718,-9.264 -6.379,-14.314 l 58.554,15.92 c 11.99,3.297 22.272,2.467 30.858,-2.49 9.621,-5.555 15.991,-13.959 19.102,-25.227 3.111,-11.27 1.869,-21.748 -3.732,-31.449 -5,-8.66 -13.19,-14.785 -24.582,-18.375 L 193.414,336.093 c -13.436,-5.63 -25.891,-5.141 -37.359,1.48 -8.681,5.012 -14.671,13.089 -17.964,24.229 -11.887,41.973 -6.939,81.84 14.857,119.594 21.602,37.414 52.497,61.488 92.69,72.23 40.197,10.748 79.026,5.299 116.488,-16.33 37.461,-21.629 61.677,-52.578 72.643,-92.865 1.277,-4.691 2.324,-9.361 3.16,-14.012 2.413,-2.584 4.609,-5.572 6.578,-8.984 l 26.699,-46.244 c 10,-17.32 24.664,-28.484 43.998,-33.487 19.328,-5.007 37.678,-2.495 55.053,7.536 17.361,10.023 28.629,24.602 33.791,43.74 5.166,19.129 2.752,37.357 -7.244,54.67 -2.594,4.494 -5.666,8.719 -9.207,12.682 l -15.492,-58.668 c -3.137,-12.033 -8.998,-20.521 -17.584,-25.479 -9.621,-5.555 -20.084,-6.869 -31.398,-3.93 -11.314,2.941 -19.768,9.254 -25.369,18.957 -5,8.66 -6.209,18.814 -3.621,30.475 l 26.729,104.111 c 1.842,14.449 8.492,24.992 19.961,31.613 8.682,5.012 18.672,6.16 29.965,3.443 42.293,-10.691 74.346,-34.91 96.143,-72.664 21.6,-37.415 27.001,-76.208 16.208,-116.387 z" /><g
       id="g39"><linearGradient
         y2="330.26489"
         x2="380.50079"
         y1="95.265602"
         x1="265.50101"
         gradientUnits="userSpaceOnUse"
         id="SVGID_3_"><stop
           id="stop25"
           style="stop-color:#FFFFFF"
           offset="0" /><stop
           id="stop27"
           style="stop-color:#FFFFFF"
           offset="1" /></linearGradient><path
         style="opacity:0.25;fill:url(#SVGID_3_)"
         id="path30"
         d="m 137.208,361.342 c 2.304,-7.794 5.933,-14.082 10.875,-18.877 -0.336,-5.336 -0.527,-10.712 -0.527,-16.133 0,-101.002 59.312,-188.137 144.996,-228.518 3.986,-5.122 8.351,-10.065 13.105,-14.826 29.398,-29.438 65.696,-44.156 108.899,-44.156 43.594,0 80.594,15.648 111,46.93 8,8.422 12,17.648 12,27.672 0,0.365 -0.021,0.721 -0.03,1.083 38.732,25.189 70.124,60.713 90.271,102.661 4.848,-1.429 9.706,-2.847 14.579,-4.247 -20.205,-43.096 -51.554,-79.922 -90.329,-106.736 -0.645,-4.527 -1.898,-8.962 -3.729,-13.166 -2.794,-6.44 -6.867,-12.316 -11.888,-17.597 l -0.094,-0.101 -0.024,-0.024 C 519.871,58.38 501.3,45.391 480.842,36.75 460.393,28.094 438.141,23.823 414.557,23.832 c -23.298,-0.007 -45.188,3.991 -65.264,12.139 -20.079,8.131 -38.266,20.397 -54.251,36.417 -4.306,4.312 -8.334,8.776 -12.082,13.389 -89.041,43.399 -150.392,134.821 -150.404,240.553 0,3.633 0.081,7.231 0.228,10.798 -4.501,5.817 -7.804,12.614 -9.961,19.961 l -0.026,0.088 -0.022,0.076 c -4.541,16.027 -6.863,31.98 -6.861,47.741 -0.026,28.904 7.877,57.024 23.162,83.44 0.408,0.707 0.827,1.4 1.242,2.1 3.559,-3.827 7.143,-7.616 10.762,-11.353 -20.948,-37.234 -25.575,-76.515 -13.872,-117.839 z" /><linearGradient
         y2="330.25949"
         x2="380.5116"
         y1="95.2603"
         x1="265.51169"
         gradientUnits="userSpaceOnUse"
         id="SVGID_4_"><stop
           id="stop32"
           style="stop-color:#FFFFFF"
           offset="0" /><stop
           id="stop34"
           style="stop-color:#FFFFFF"
           offset="1" /></linearGradient><path
         style="opacity:0.25;fill:url(#SVGID_4_)"
         id="path37"
         d="m 537.526,114.517 c 0.009,-0.362 0.03,-0.718 0.03,-1.083 0,-10.023 -4,-19.25 -12,-27.672 -30.406,-31.281 -67.406,-46.93 -111,-46.93 -43.203,0 -79.501,14.719 -108.899,44.156 -4.755,4.76 -9.119,9.704 -13.105,14.826 -85.685,40.38 -144.996,127.516 -144.996,228.518 0,5.421 0.191,10.797 0.527,16.133 -4.942,4.795 -8.571,11.083 -10.875,18.877 -11.703,41.324 -7.076,80.605 13.871,117.84 3.641,-3.76 7.321,-7.46 11.022,-11.129 122.778,-121.7 278.53,-194.236 451.114,-246.516 4.848,-1.468 9.707,-2.922 14.581,-4.359 -20.146,-41.948 -51.537,-77.471 -90.27,-102.661 z" /></g></g></svg>