/* XPM */
static char * exfont_xpm[] = {
"156 48 256 2",
"  	c #000000",
". 	c #808080",
"+ 	c #808080",
"@ 	c #808080",
"# 	c #808080",
"$ 	c #808080",
"% 	c #808080",
"& 	c #808080",
"* 	c #808080",
"= 	c #808080",
"- 	c #808080",
"; 	c #808080",
"> 	c #808080",
", 	c #808080",
"' 	c #808080",
") 	c #808080",
"! 	c #808080",
"~ 	c #808080",
"{ 	c #808080",
"] 	c #808080",
"^ 	c #808080",
"/ 	c #808080",
"( 	c #808080",
"_ 	c #808080",
": 	c #808080",
"< 	c #808080",
"[ 	c #808080",
"} 	c #808080",
"| 	c #808080",
"1 	c #808080",
"2 	c #808080",
"3 	c #808080",
"4 	c #808080",
"5 	c #808080",
"6 	c #808080",
"7 	c #808080",
"8 	c #808080",
"9 	c #808080",
"0 	c #808080",
"a 	c #808080",
"b 	c #808080",
"c 	c #808080",
"d 	c #808080",
"e 	c #808080",
"f 	c #808080",
"g 	c #808080",
"h 	c #808080",
"i 	c #808080",
"j 	c #808080",
"k 	c #808080",
"l 	c #808080",
"m 	c #808080",
"n 	c #808080",
"o 	c #808080",
"p 	c #808080",
"q 	c #808080",
"r 	c #808080",
"s 	c #808080",
"t 	c #808080",
"u 	c #808080",
"v 	c #808080",
"w 	c #808080",
"x 	c #808080",
"y 	c #808080",
"z 	c #808080",
"A 	c #808080",
"B 	c #808080",
"C 	c #808080",
"D 	c #808080",
"E 	c #808080",
"F 	c #808080",
"G 	c #808080",
"H 	c #808080",
"I 	c #808080",
"J 	c #808080",
"K 	c #808080",
"L 	c #808080",
"M 	c #808080",
"N 	c #808080",
"O 	c #808080",
"P 	c #808080",
"Q 	c #808080",
"R 	c #808080",
"S 	c #808080",
"T 	c #808080",
"U 	c #808080",
"V 	c #808080",
"W 	c #808080",
"X 	c #808080",
"Y 	c #808080",
"Z 	c #808080",
"` 	c #808080",
" .	c #808080",
"..	c #808080",
"+.	c #808080",
"@.	c #808080",
"#.	c #808080",
"$.	c #808080",
"%.	c #808080",
"&.	c #808080",
"*.	c #808080",
"=.	c #808080",
"-.	c #808080",
";.	c #808080",
">.	c #808080",
",.	c #808080",
"'.	c #808080",
").	c #808080",
"!.	c #808080",
"~.	c #808080",
"{.	c #808080",
"].	c #808080",
"^.	c #808080",
"/.	c #808080",
"(.	c #808080",
"_.	c #808080",
":.	c #808080",
"<.	c #808080",
"[.	c #808080",
"}.	c #808080",
"|.	c #808080",
"1.	c #808080",
"2.	c #808080",
"3.	c #808080",
"4.	c #808080",
"5.	c #808080",
"6.	c #808080",
"7.	c #808080",
"8.	c #808080",
"9.	c #808080",
"0.	c #808080",
"a.	c #808080",
"b.	c #808080",
"c.	c #808080",
"d.	c #808080",
"e.	c #808080",
"f.	c #808080",
"g.	c #808080",
"h.	c #808080",
"i.	c #808080",
"j.	c #808080",
"k.	c #808080",
"l.	c #808080",
"m.	c #808080",
"n.	c #808080",
"o.	c #808080",
"p.	c #808080",
"q.	c #808080",
"r.	c #808080",
"s.	c #808080",
"t.	c #808080",
"u.	c #808080",
"v.	c #808080",
"w.	c #808080",
"x.	c #808080",
"y.	c #808080",
"z.	c #808080",
"A.	c #808080",
"B.	c #808080",
"C.	c #808080",
"D.	c #808080",
"E.	c #808080",
"F.	c #808080",
"G.	c #808080",
"H.	c #808080",
"I.	c #808080",
"J.	c #808080",
"K.	c #808080",
"L.	c #808080",
"M.	c #808080",
"N.	c #808080",
"O.	c #808080",
"P.	c #808080",
"Q.	c #808080",
"R.	c #808080",
"S.	c #808080",
"T.	c #808080",
"U.	c #808080",
"V.	c #808080",
"W.	c #808080",
"X.	c #808080",
"Y.	c #808080",
"Z.	c #808080",
"`.	c #808080",
" +	c #808080",
".+	c #808080",
"++	c #808080",
"@+	c #808080",
"#+	c #808080",
"$+	c #808080",
"%+	c #808080",
"&+	c #808080",
"*+	c #808080",
"=+	c #808080",
"-+	c #808080",
";+	c #808080",
">+	c #808080",
",+	c #808080",
"'+	c #808080",
")+	c #808080",
"!+	c #808080",
"~+	c #808080",
"{+	c #808080",
"]+	c #808080",
"^+	c #808080",
"/+	c #808080",
"(+	c #808080",
"_+	c #808080",
":+	c #808080",
"<+	c #808080",
"[+	c #808080",
"}+	c #808080",
"|+	c #808080",
"1+	c #808080",
"2+	c #808080",
"3+	c #808080",
"4+	c #808080",
"5+	c #808080",
"6+	c #808080",
"7+	c #808080",
"8+	c #808080",
"9+	c #808080",
"0+	c #808080",
"a+	c #808080",
"b+	c #808080",
"c+	c #808080",
"d+	c #808080",
"e+	c #808080",
"f+	c #808080",
"g+	c #808080",
"h+	c #808080",
"i+	c #808080",
"j+	c #808080",
"k+	c #808080",
"l+	c #808080",
"m+	c #808080",
"n+	c #808080",
"o+	c #808080",
"p+	c #808080",
"q+	c #808080",
"r+	c #808080",
"s+	c #808080",
"t+	c #808080",
"u+	c #808080",
"v+	c #808080",
"w+	c #808080",
"x+	c #808080",
"y+	c #808080",
"z+	c #808080",
"A+	c #808080",
"B+	c #808080",
"C+	c #808080",
"D+	c #808080",
"E+	c #808080",
"F+	c #808080",
"G+	c #FFFFFF",
"G+G+G+                    G+G+G+G+G+G+G+G+G+              G+                    G+G+G+                  G+G+G+              G+          G+              G+G+G+                    G+                                                                  G+                  G+      G+      G+      G+      G+      G+    ",
"G+    G+                  G+              G+            G+  G+              G+G+      G+G+                G+  G+G+            G+      G+              G+      G+                  G+                      G+G+G+G+G+      G+G+G+G+    G+G+        G+G+G+G+G+              G+      G+      G+      G+      G+      G+    ",
"G+      G+                G+      G+      G+    G+G+G+G+G+G+G+G+G+G+G+    G+              G+                G+    G+            G+G+G+              G+          G+            G+G+G+G+G+                        G+G+            G+    G+              G+                  G+G+G+G+G+G+G+G+G+      G+      G+      G+    ",
"  G+      G+              G+      G+      G+      G+  G+      G+  G+      G+              G+                G+    G+          G+      G+            G+          G+                G+                          G+  G+            G+    G+              G+  G+G+G+          G+      G+      G+      G+      G+      G+    ",
"    G+      G+            G+  G+G+G+G+G+  G+      G+  G+      G+  G+    G+                  G+                G+    G+      G+          G+          G+          G+              G+G+G+              G+G+G+  G+    G+            G+    G+              G+G+      G+        G+    G+G+G+    G+      G+      G+      G+    ",
"      G+      G+  G+G+    G+      G+      G+        G+          G+      G+        G+        G+              G+      G+      G+          G+            G+      G+              G+      G+          G+      G+      G+          G+      G+              G+          G+          G+      G+            G+    G+    G+      ",
"        G+      G+  G+    G+      G+      G+      G+  G+      G+  G+    G+                  G+              G+      G+        G+      G+                G+G+G+              G+          G+      G+          G+              G+        G+              G+          G+        G+          G+            G+G+G+G+G+        ",
"          G+  G+  G+        G+    G+    G+        G+  G+      G+  G+      G+              G+              G+      G+            G+G+G+                    G+                G+          G+      G+          G+              G+G+G+G+G+G+G+G+          G+          G+        G+          G+                G+            ",
"            G+  G+G+G+        G+      G+        G+G+G+G+G+G+G+G+G+G+G+    G+              G+            G+        G+              G+                  G+G+G+G+G+            G+          G+      G+          G+            G+          G+                        G+          G+          G+          G+G+G+G+G+G+G+      ",
"          G+  G+G+  G+          G+  G+                  G+  G+              G+G+      G+G+          G+G+      G+G+            G+G+G+G+G+                  G+                  G+      G+          G+      G+                          G+                      G+              G+      G+                  G+            ",
"          G+G+  G+G+G+            G+                      G+                    G+G+G+                  G+G+G+                    G+                      G+                    G+G+G+              G+G+G+                            G+                    G+                  G+G+G+                    G+            ",
"                                                                                                                                                                                                                                                                                                                        ",
"    G+G+G+G+G+G+                                                                                                                G+G+G+                                                                                                                                                                                  ",
"    G+          G+        G+G+G+      G+G+G+    G+                  G+  G+G+              G+G+      G+G+G+G+G+G+              G+      G+        G+  G+G+  G+G+  G+G+            G+G+G+          G+  G+G+  G+G+                        G+G+G+    G+G+            G+G+        G+    G+    G+      G+G+              G+G+  ",
"    G+            G+    G+      G+  G+      G+    G+              G+        G+G+G+G+G+G+G+        G+  G+        G+G+        G+          G+        G+    G+    G+    G+        G+      G+          G+    G+    G+                        G+G+      G+          G+    G+    G+G+  G+G+  G+G+  G+      G+          G+      ",
"    G+            G+    G+        G+        G+      G+G+      G+G+            G+      G+        G+      G+          G+      G+          G+        G+    G+    G+    G+      G+          G+        G+    G+    G+                      G+  G+      G+        G+G+    G+  G+  G+G+  G+G+  G+G+          G+      G+        ",
"    G+          G+        G+      G+      G+            G+G+G+                G+      G+        G+      G+          G+      G+          G+        G+    G+    G+    G+      G+          G+        G+    G+    G+                    G+            G+      G+    G+G+        G+    G+    G+            G+      G+        ",
"    G+G+G+G+G+G+                  G+                  G+      G+              G+      G+          G+G+G+      G+G+G+          G+        G+        G+    G+    G+    G+      G+          G+        G+    G+    G+                  G+              G+    G+        G+                            G+G+G+G+G+G+G+G+G+G+G+  ",
"    G+                            G+                G+          G+            G+      G+        G+          G+      G+    G+    G+      G+        G+    G+    G+    G+        G+      G+          G+    G+    G+        G+G+G+G+G+G+G+G+G+G+      G+  G+          G+        G+    G+    G+            G+      G+        ",
"    G+                            G+                G+          G+            G+      G+        G+          G+      G+  G+      G+      G+        G+    G+    G+  G+    G+G+G+G+      G+G+G+G+    G+    G+    G+    G+        G+                  G+G+            G+      G+G+  G+G+  G+G+  G+        G+      G+        ",
"    G+                            G+                G+          G+          G+G+G+G+G+G+G+        G+G+        G+  G+    G+      G+      G+        G+    G+      G+                                G+    G+    G+  G+        G+                    G+              G+    G+  G+G+  G+G+  G+G+        G+          G+      ",
"    G+                            G+                  G+      G+        G+G+              G+G+        G+G+G+G+G+G+        G+G+G+        G+                    G+  G+    G+G+G+G+G+G+G+G+G+G+G+                  G+        G+                                    G+          G+    G+    G+      G+G+              G+G+  ",
"    G+G+G+G+G+G+G+G+              G+                    G+G+G+                                                                            G+                G+      G+                                                  G+                                  G+G+                                                        ",
"                                                                                                                                                                                                                                                                                                                        ",
"        G+G+G+                  G+G+G+                  G+G+G+                                                                    G+                                              G+                    G+G+G+                    G+                                              G+                    G+G+G+          ",
"    G+G+      G+G+          G+G+      G+G+          G+G+      G+G+                G+                    G+G+G+                  G+  G+              G+G+      G+G+              G+  G+                G+      G+                G+G+G+              G+G+      G+G+              G+G+G+                G+G+G+G+G+        ",
"  G+              G+      G+              G+      G+              G+              G+                  G+      G+              G+      G+          G+    G+  G+    G+          G+      G+              G+      G+              G+G+G+G+G+          G+G+G+G+  G+G+G+G+          G+G+G+G+G+              G+G+G+G+G+        ",
"  G+  G+      G+  G+      G+  G+      G+  G+      G+  G+      G+  G+              G+              G+G+        G+            G+          G+      G+        G+        G+      G+          G+              G+  G+              G+G+G+G+G+G+G+      G+G+G+G+G+G+G+G+G+G+G+      G+G+G+G+G+G+G+              G+G+G+          ",
"G+                  G+  G+                  G+  G+                  G+          G+  G+                G+G+G+G+            G+              G+    G+                  G+    G+              G+      G+G+G+      G+G+G+      G+G+G+G+G+G+G+G+G+    G+G+G+G+G+G+G+G+G+G+G+    G+G+G+G+G+G+G+G+G+      G+G+G+G+G+G+G+G+G+    ",
"G+                  G+  G+                  G+  G+                  G+          G+  G+                                  G+                  G+  G+                  G+  G+                  G+  G+                  G+  G+G+G+G+G+G+G+G+G+G+G+  G+G+G+G+G+G+G+G+G+G+G+  G+G+G+G+G+G+G+G+G+G+G+  G+G+G+G+G+G+G+G+G+G+G+  ",
"G+  G+          G+  G+  G+                  G+  G+      G+G+G+      G+        G+      G+          G+G+G+G+              G+                  G+    G+              G+      G+              G+    G+      G+  G+      G+  G+G+G+G+G+G+G+G+G+G+G+    G+G+G+G+G+G+G+G+G+      G+G+G+G+G+G+G+G+G+    G+G+G+G+G+G+G+G+G+G+G+  ",
"  G+  G+      G+  G+      G+  G+G+G+G+G+  G+      G+  G+      G+  G+          G+      G+            G+    G+            G+      G+  G+      G+      G+          G+          G+          G+      G+    G+  G+  G+    G+  G+G+G+G+G+G+G+G+G+G+G+      G+G+G+G+G+G+G+          G+G+G+G+G+G+G+      G+G+G+G+  G+  G+G+G+G+  ",
"  G+    G+G+G+    G+      G+              G+      G+G+          G+G+          G+      G+              G+    G+            G+G+G+  G+  G+G+G+          G+      G+              G+      G+          G+G+    G+    G+G+      G+G+G+  G+  G+G+G+          G+G+G+G+G+              G+G+G+G+G+          G+G+    G+    G+G+    ",
"    G+G+      G+G+          G+G+      G+G+          G+G+      G+G+              G+G+G+                G+    G+                    G+                    G+  G+                  G+  G+                    G+                      G+                    G+G+G+                  G+G+G+                    G+            ",
"        G+G+G+                  G+G+G+                  G+G+G+                                          G+G+                    G+G+G+                    G+                      G+                    G+G+G+                  G+G+G+                    G+                      G+                    G+G+G+          ",
"                                                                                                                                                                                                                                                                                                                        ",
"      G+G+G+G+G+                G+G+G+                    G+                                                                      G+                      G+                  G+G+G+G+G+                  G+                                          G+                              G+                                ",
"    G+G+G+G+G+G+G+              G+  G+            G+              G+          G+G+G+                                            G+  G+                    G+G+                G+      G+                G+G+                G+G+G+G+G+G+G+G+        G+  G+                          G+  G+        G+G+G+G+G+G+G+G+      ",
"  G+G+    G+    G+G+            G+  G+                  G+G+G+                    G+G+G+                                      G+      G+                  G+  G+              G+      G+              G+  G+                  G+          G+      G+      G+      G+      G+      G+      G+      G+          G+        ",
"  G+G+    G+    G+G+      G+G+G+G+  G+G+G+G+          G+G+G+G+G+                    G+G+                G+G+G+              G+          G+      G+G+G+G+G+G+    G+            G+      G+            G+    G+G+G+G+G+G+          G+        G+    G+          G+  G+G+      G+G+  G+          G+    G+        G+          ",
"    G+G+G+G+G+G+G+        G+              G+        G+G+G+G+G+G+G+                  G+G+G+            G+G+G+G+G+          G+              G+    G+                G+          G+      G+          G+                G+        G+          G+      G+          G+  G+      G+  G+          G+      G+          G+        ",
"      G+  G+  G+          G+G+G+G+  G+G+G+G+    G+  G+G+G+G+G+G+G+  G+              G+G+G+            G+G+G+G+G+        G+G+G+G+      G+G+G+G+  G+                  G+  G+G+G+G+      G+G+G+G+  G+                  G+      G+            G+        G+            G+      G+            G+        G+            G+      ",
"G+G+              G+G+          G+  G+              G+G+G+G+G+G+G+                  G+G+G+            G+G+G+G+G+              G+      G+        G+                G+      G+              G+      G+                G+    G+          G+  G+          G+          G+      G+          G+          G+  G+          G+    ",
"    G+G+      G+G+              G+  G+                G+G+G+G+G+                    G+G+                G+G+G+                G+      G+        G+G+G+G+G+G+    G+          G+          G+          G+    G+G+G+G+G+G+  G+          G+  G+G+            G+        G+      G+        G+            G+G+  G+          G+  ",
"        G+G+G+                  G+  G+                  G+G+G+                    G+G+G+                                      G+      G+                  G+  G+              G+      G+              G+  G+              G+      G+      G+          G+          G+      G+          G+          G+      G+      G+    ",
"    G+G+      G+G+              G+  G+            G+              G+          G+G+G+                                          G+      G+                  G+G+                  G+  G+                  G+G+                G+  G+                  G+G+G+G+G+G+G+G+      G+G+G+G+G+G+G+G+                  G+  G+      ",
"G+G+              G+G+          G+G+G+                    G+                                                                  G+G+G+G+G+                  G+                      G+                      G+                  G+                                                                              G+        ",
"                                                                                                                                                                                                                                                                                                                        "};
