/* XPM */
static const char * exfont_xpm[] = {
"156 48 2 1",
".	c #000000",
"*	c #FFFFFF",
".............*.......*.......*...........*.........***........**...**....................*.................................*.........*.......*...**..*..**..",
".**..........*...*...*......*.*.......***.***........****.......***.........***..........*...........*****.....*....*......*..........*..*..*....**..*..**..",
".*.*.........****.****..***********..*.......*........*..*.....*...*.......*...*.......*****............**...**.*..*.....*****.........*****.....**..*..**..",
"..*.*........*.......*...*********...*.......*........*..*.....*...*......*.....*........*.............*.*......*..*.......*..........*..*..*....**..*..**..",
"...*.*...**..*...*...*.....*.*.*.....*...*...*.........*..*...*..*..*.....*.....*........*.......******..*......*..*.......*.***.....*..***..*...**..*..**..",
"....*.*.***..*.*****.*......*.*.....*...*.*...*.......*...*...*..*..*......*...*........***.....**...**..*......*..*.......**...*......*...*......**.*.**...",
".....*.***...*...*...*.....*...*.....*...*...*........*....*...*...*........***........*...*....*.....*........*...*.......*.....*....*.....*......*****....",
"......***....*...*...*....********...*.......*........*...*....*...*.........*........*.....*...*.....*........****..............*...*.......*.......*......",
".....***.*...*...*...*..***********..*.......*...**.**....*.....***..........*........*.....*...*.....*......**....***.......*..*.....*.....*.....*******...",
"....***.*.*...***.***.......*.*.......***.***.....**....**.....*****.......*****.......*...*....**...**............*..........**.......*...*.........*......",
"....**...**......*..........***..........*..........****.........*...........*..........***......*****.............*....................***.........***.....",
"............................................................................................................................................................",
"..*****........................................................*****........................................................................................",
"..******.....***...***..*.........*.**.......**...*******.....*.....*...*.**.**.**......***.....*.**.**...........****..**......**....*..*..*...**.......**.",
"..**....*...*...*.*...*..**.....**....*******...**.**...**....*.....*...**..*..*..*....*****.....*..*..*............**...*.....**.*..**.**.**.*...*.....*...",
"..**.....*..*...***...*...**...**......**.**....*...*....**...*.....*...**.***.*..*...*.....*....**.**.*..........**.*...*....**..*.*..*..*..*.....**.**....",
"..**....*....*..***..*......***........**.**....**.**.....*...*.....*...**.***.*..*...*.....*....**.**.*.........**..*...*...**.*.*...*..*..*......**.**....",
"...*****........***........**.**.......**.**.....***...***.....*....*...**.***.**.*...*.....*....**.**.*........**.......*..**..**..............***********.",
"..*.............***.......**...**......**.**....*.....*...*.**..*...*...**.***.**.*....*...*.....**.**.*..*.**********...*.**....*....*..*..*......**.**....",
"..*.............***.......*.....*......**.**....*.....*...*.*...*...*...**.***.*.*..****...****..**.**.*..*.**********...***.....*...**.**.**.*....**.**....",
"..*.............***.......**...**.....*******....**...**.*..*...*...*...**.***..*................**.**.*.*....**.........**......*..*..*..*..*....*.....*...",
"..*.............***........**.**....**.......**....*******..*****....*.........*.*..***********..**.**.*.*...**..........*.......*....*..*..*...**.......**.",
"..**.*.*.*......***.........***......................................*........*...*.***********..**.**..*...**................***...........................",
"............................................................................................................................................................",
"...*****.......*****.......*****.................................*.......................*.........*****.........*.......................*..........***.....",
"..*.....*.....*.....*.....*.....*........*..........***.........*.*.......**...**.......*.*.......*.....*.......***.......**...**.......***........*...*....",
".*.......*...*.......*...*.......*.......*.........**.**.......*...*.....*..*.*..*.....*...*.......*...*.......*****.....****.****.....**.**.......*...*....",
"*..*...*..*.*...*.*...*.*...*.*...*......*.......***..**......*.....*...*....*....*...*..*..*.......*.*.......***.***...***********...**...**.......*.*.....",
"*..**.**..*.*..**.**..*.*..**.**..*.....*.*........****......*.......*..*..*...*..*..*..*.*..*....**...**....***...***..**..***..**..**..*..**.....**.**....",
"*.........*.*.........*.*.........*.....*.*.................*...***...*.*..**.**..*.*..*.*.*..*..*.......*..***.....***.***..*..***.**..***..**..****.****..",
"*.*.....*.*.*.........*.*...***...*....*.*.*.....****.......*...***...*..*..***..*...*..*.*..*..*...*.*...*.**..***..**..***...***...**..*..**..*****.*****.",
"*..*...*..*.*..*****..*.*..*...*..*....*.*.*......****.......***.*.***....*..*..*.....*..*..*...*..*.*.*..*.***********...***.***.....**...**...****.*.****.",
".*..***..*...*.......*...*.......*.....*****.......*.**..........*.........*...*.......*...*.....**..*..**...***.*.***.....*****.......**.**.....**..*..**..",
"..*.....*.....*.....*.....*.....*.......***........*..*..........*..........*.*.........*.*..........*...........*..........***.........***..........*......",
"...*****.......*****.......*****....................**..........***..........*...........*.........**.**.......**.**.........*...........*.........**.**....",
"............................................................................................................................................................",
"...*****.........*...........*........**.........................*...........*..........***..........*......................................................",
"..*******.......*.*......*.......*......**......................***..........**.........***.........**........********....*.................*....*******....",
".**..*..**......*.*.........***...........**...................*****.........***........***........***............****...***...............***...****.......",
".***.*.***....*******......**.**..........**........***.......***.***.........***.......***.......***.............****....***....*...*....***....****.......",
"..*******....*..*.*..*....**...**..........**......**.**.....***.*.***..*****..***......***......***..*****......*****.....***...*...*...***.....*****......",
"...**.**......*******...*.***.***.*........**......*...*....***..*..***.*******.***.***..*..***.***.*******.....***..*......***..*...*..***......*..***.....",
".*..*.*..*......*.*........*****...........**......**.**........***.....*****..***...***.*.***...***..*****....***...*.......*****...*****.......*...***....",
"..**...**.......*.*.........***...........**........***.........***...........***.....***.***.....***.........***....*........****...****........*....***...",
"....***.........*.*..........*............**....................***..........***.......*****.......***.......***..............****...****..............**...",
"..**...**.......*.*......*.......*.......*......................***..........**.........***.........**........*............*******...*******................",
".*.......*.......*...........*.........**.......................***..........*...........*...........*......................................................",
"............................................................................................................................................................"};
